<svg xmlns="http://www.w3.org/2000/svg" viewBox="0 0 960 480" role="img" aria-labelledby="t"><title id="t">평생 기억할 약속과 큰 금전적 이익이 충돌하면 약속을 먼저 지켜야 할까?</title><defs><linearGradient id="bg" x2="1" y2="1"><stop stop-color="#202631"/><stop offset="1" stop-color="#0d111a"/></linearGradient></defs><rect width="960" height="480" rx="28" fill="url(#bg)"/><circle cx="541" cy="202" r="150" fill="#92ced3" opacity=".06"/><path d="M50 390Q320 320 450 395Q590 450 910 340" fill="none" stroke="#92ced3" stroke-opacity=".2" stroke-width="3"/><g transform="translate(75 150)"><circle r="11" fill="#92ced3"/><rect x="-12" y="17" width="24" height="40" rx="11" fill="#92ced3"/></g><g transform="translate(137 175)"><circle r="11" fill="#47505d"/><rect x="-12" y="17" width="24" height="40" rx="11" fill="#47505d"/></g><g transform="translate(199 200)"><circle r="11" fill="#47505d"/><rect x="-12" y="17" width="24" height="40" rx="11" fill="#47505d"/></g><g transform="translate(261 150)"><circle r="11" fill="#47505d"/><rect x="-12" y="17" width="24" height="40" rx="11" fill="#47505d"/></g><g transform="translate(323 175)"><circle r="11" fill="#47505d"/><rect x="-12" y="17" width="24" height="40" rx="11" fill="#47505d"/></g><g transform="translate(385 200)"><circle r="11" fill="#47505d"/><rect x="-12" y="17" width="24" height="40" rx="11" fill="#47505d"/></g><g transform="translate(541 202) rotate(-12)" fill="none" stroke="#92ced3" stroke-width="7" stroke-linecap="round" stroke-linejoin="round"><rect x="-55" y="-55" width="110" height="110" rx="18"/><path d="M-90 -30H-55M-90 0H-55M-90 30H-55M55 -30H90M55 0H90M55 30H90M-30 -90V-55M0 -90V-55M30 -90V-55M-30 55V90M0 55V90M30 55V90"/><circle r="22"/></g><g transform="translate(810 295)"><circle cy="-38" r="21" fill="#f6c85e"/><rect x="-23" y="-5" width="46" height="60" rx="20" fill="#f6c85e"/><path d="M-12 50v30M12 50v30" stroke="#f6c85e" stroke-width="13" stroke-linecap="round"/></g><text x="55" y="63" fill="#92ced3" font-family="system-ui,sans-serif" font-size="14" letter-spacing="3">COMMUNITY / 074</text><text x="55" y="312" fill="#e6e9ec" font-family="system-ui,sans-serif" font-size="22">Meaning / practical benefit</text><text x="55" y="352" fill="#f6c85e" font-family="system-ui,sans-serif" font-size="18">A · AGREE</text><text x="55" y="383" fill="#75a7ff" font-family="system-ui,sans-serif" font-size="18">B · DISAGREE</text></svg>