<svg xmlns="http://www.w3.org/2000/svg" viewBox="0 0 960 480" role="img" aria-labelledby="t"><title id="t">반대한 사람이 결정의 혜택을 받아도 될까?</title><defs><linearGradient id="bg" x2="1" y2="1"><stop stop-color="#202631"/><stop offset="1" stop-color="#0d111a"/></linearGradient></defs><rect width="960" height="480" rx="28" fill="url(#bg)"/><circle cx="541" cy="216" r="150" fill="#d6bbff" opacity=".06"/><path d="M50 390Q320 320 450 395Q590 450 910 340" fill="none" stroke="#d6bbff" stroke-opacity=".2" stroke-width="3"/><g transform="translate(75 150)"><circle r="11" fill="#47505d"/><rect x="-12" y="17" width="24" height="40" rx="11" fill="#47505d"/></g><g transform="translate(137 175)"><circle r="11" fill="#47505d"/><rect x="-12" y="17" width="24" height="40" rx="11" fill="#47505d"/></g><g transform="translate(199 200)"><circle r="11" fill="#47505d"/><rect x="-12" y="17" width="24" height="40" rx="11" fill="#47505d"/></g><g transform="translate(261 150)"><circle r="11" fill="#d6bbff"/><rect x="-12" y="17" width="24" height="40" rx="11" fill="#d6bbff"/></g><g transform="translate(323 175)"><circle r="11" fill="#47505d"/><rect x="-12" y="17" width="24" height="40" rx="11" fill="#47505d"/></g><g transform="translate(385 200)"><circle r="11" fill="#47505d"/><rect x="-12" y="17" width="24" height="40" rx="11" fill="#47505d"/></g><g transform="translate(541 216) rotate(15)" fill="none" stroke="#d6bbff" stroke-width="7" stroke-linecap="round" stroke-linejoin="round"><circle cx="0" cy="-45" r="25"/><circle cx="-70" cy="0" r="19"/><circle cx="70" cy="0" r="19"/><path d="M-35 60v-35q35 -35 70 0v35M-105 70V45q35 -35 55 0M50 45q35 -35 55 0v25"/></g><g transform="translate(810 295)"><circle cy="-38" r="21" fill="#f6c85e"/><rect x="-23" y="-5" width="46" height="60" rx="20" fill="#f6c85e"/><path d="M-12 50v30M12 50v30" stroke="#f6c85e" stroke-width="13" stroke-linecap="round"/></g><text x="55" y="63" fill="#d6bbff" font-family="system-ui,sans-serif" font-size="14" letter-spacing="3">COMMUNITY / 030</text><text x="55" y="312" fill="#e6e9ec" font-family="system-ui,sans-serif" font-size="22">Majority</text><text x="55" y="352" fill="#f6c85e" font-family="system-ui,sans-serif" font-size="18">A · YOUR CHOICE</text><text x="55" y="383" fill="#a8d8cb" font-family="system-ui,sans-serif" font-size="18">B · ANOTHER VIEW</text></svg>